<?xml version="1.0" encoding="UTF-8" standalone="no"?><svg xmlns="http://www.w3.org/2000/svg" xmlns:xlink="http://www.w3.org/1999/xlink" contentScriptType="application/ecmascript" contentStyleType="text/css" height="218px" preserveAspectRatio="none" style="width:948px;height:218px;background:#FFFFFF;" version="1.1" viewBox="0 0 948 218" width="948px" zoomAndPan="magnify"><defs><filter height="300%" id="f1t3d9iscwo9k6" width="300%" x="-1" y="-1"><feGaussianBlur result="blurOut" stdDeviation="2.0"/><feColorMatrix in="blurOut" result="blurOut2" type="matrix" values="0 0 0 0 0 0 0 0 0 0 0 0 0 0 0 0 0 0 .4 0"/><feOffset dx="4.0" dy="4.0" in="blurOut2" result="blurOut3"/><feBlend in="SourceGraphic" in2="blurOut3" mode="normal"/></filter></defs><g><!--MD5=[300943ec14ee9644d78d1ce9c3121b5a]
entity precommand--><rect fill="#FEFECE" filter="url(#f1t3d9iscwo9k6)" height="23.6094" style="stroke:#000000;stroke-width:1.5;" width="90" x="7" y="174"/><text fill="#000000" font-family="sans-serif" font-size="14" lengthAdjust="spacing" textLength="70" x="17" y="191.5332">前段の処理</text><!--MD5=[2c21c9db41e00db1b09eb677c7f4fc17]
entity preout--><rect fill="#FEFECE" filter="url(#f1t3d9iscwo9k6)" height="23.6094" style="stroke:#000000;stroke-width:1.5;" width="216" x="170" y="174"/><text fill="#000000" font-family="sans-serif" font-size="14" lengthAdjust="spacing" textLength="196" x="180" y="191.5332">標準出力に出力されたテキスト</text><!--MD5=[8fc3522a43f8c7199df5e09e5bb0188e]
entity user--><ellipse cx="514" cy="14" fill="#FEFECE" filter="url(#f1t3d9iscwo9k6)" rx="8" ry="8" style="stroke:#A80036;stroke-width:1.5;"/><path d="M514,22 L514,49 M501,30 L527,30 M514,49 L501,64 M514,49 L527,64 " fill="none" filter="url(#f1t3d9iscwo9k6)" style="stroke:#A80036;stroke-width:1.5;"/><text fill="#000000" font-family="sans-serif" font-size="14" lengthAdjust="spacing" textLength="42" x="493" y="84.0332">利用者</text><!--MD5=[42f5dcd2bb0ba87fb960d0d08bcd7c79]
entity filter--><rect fill="#FEFECE" filter="url(#f1t3d9iscwo9k6)" height="23.6094" style="stroke:#000000;stroke-width:1.5;" width="104" x="462" y="174"/><text fill="#000000" font-family="sans-serif" font-size="14" lengthAdjust="spacing" textLength="84" x="472" y="191.5332">絞り込み画面</text><!--MD5=[4f357fab6ca34eab091f0017c5b8d99b]
entity filteredtext--><rect fill="#FEFECE" filter="url(#f1t3d9iscwo9k6)" height="41.2188" style="stroke:#000000;stroke-width:1.5;" width="76" x="629" y="165.5"/><text fill="#000000" font-family="sans-serif" font-size="14" lengthAdjust="spacing" textLength="56" x="639" y="183.0332">選択結果</text><text fill="#000000" font-family="sans-serif" font-size="14" lengthAdjust="spacing" textLength="32" x="639" y="200.6426">(1行)</text><!--MD5=[0d1d703129c2755c1c96e6c87d3a129c]
entity postcommand--><rect fill="#FEFECE" filter="url(#f1t3d9iscwo9k6)" height="23.6094" style="stroke:#000000;stroke-width:1.5;" width="90" x="846" y="174"/><text fill="#000000" font-family="sans-serif" font-size="14" lengthAdjust="spacing" textLength="70" x="856" y="191.5332">後段の処理</text><!--MD5=[fb069c737a74b06e2176a11a19ba66ff]
link precommand to preout--><path d="M97.19,186 C116.79,186 140.72,186 164.66,186 " fill="none" id="precommand-to-preout" style="stroke:#0000FF;stroke-width:1.0;"/><polygon fill="#0000FF" points="169.77,186,160.77,182,164.77,186,160.77,190,169.77,186" style="stroke:#0000FF;stroke-width:1.0;"/><text fill="#000000" font-family="sans-serif" font-size="13" lengthAdjust="spacing" textLength="36" x="115.5" y="179.4951">stdout</text><!--MD5=[d1cd795eebdee673616111bca4352506]
reverse link preout to filter--><path d="M391.58,186 C416.18,186 441.05,186 461.88,186 " fill="none" id="preout-backto-filter" style="stroke:#FF0000;stroke-width:1.0;"/><polygon fill="#FF0000" points="386.33,186,395.33,190,391.33,186,395.33,182,386.33,186" style="stroke:#FF0000;stroke-width:1.0;"/><text fill="#000000" font-family="sans-serif" font-size="13" lengthAdjust="spacing" textLength="39" x="404.5" y="179.4951">もらう</text><!--MD5=[2248128af807502d67fa9768726ff8c7]
link user to filter--><path d="M514,87.66 C514,114.69 514,148.75 514,168.58 " fill="none" id="user-to-filter" style="stroke:#A80036;stroke-width:1.0;stroke-dasharray:7.0,7.0;"/><polygon fill="#A80036" points="514,173.78,518,164.78,514,168.78,510,164.78,514,173.78" style="stroke:#A80036;stroke-width:1.0;"/><text fill="#000000" font-family="sans-serif" font-size="13" lengthAdjust="spacing" textLength="52" x="515" y="131.9951">選択操作</text><!--MD5=[90dcc4cc577d53a095ce93b3dbc81527]
link filter to filteredtext--><path d="M566.23,186 C584.74,186 605.37,186 623.12,186 " fill="none" id="filter-to-filteredtext" style="stroke:#0000FF;stroke-width:1.0;"/><polygon fill="#0000FF" points="628.53,186,619.53,182,623.53,186,619.53,190,628.53,186" style="stroke:#0000FF;stroke-width:1.0;"/><text fill="#000000" font-family="sans-serif" font-size="13" lengthAdjust="spacing" textLength="26" x="584.5" y="179.4951">出力</text><!--MD5=[0c5eebb4611ac45f64617cb5d468c05f]
reverse link filteredtext to postcommand--><path d="M710.39,186 C749.4,186 806.46,186 845.96,186 " fill="none" id="filteredtext-backto-postcommand" style="stroke:#FF0000;stroke-width:1.0;"/><polygon fill="#FF0000" points="705.25,186,714.25,190,710.25,186,714.25,182,705.25,186" style="stroke:#FF0000;stroke-width:1.0;"/><text fill="#000000" font-family="sans-serif" font-size="13" lengthAdjust="spacing" textLength="104" x="723.5" y="179.4951">実行時引数で参照</text><!--MD5=[fbb201260016d89008b22153888246b4]
@startuml{filtercommand.svg}

card "前段の処理" as precommand

card "標準出力に出力されたテキスト" as preout

actor "利用者" as user

card "絞り込み画面" as filter

card "選択結果\n(1行)" as filteredtext

card "後段の処理" as postcommand

precommand -ri-> preout #blue : stdout

preout <-ri- filter #red : もらう

user .do.> filter : 選択操作

filter -ri-> filteredtext #blue : 出力

filteredtext <-ri- postcommand #red : 実行時引数で参照

@enduml

PlantUML version 1.2021.10(Mon Aug 30 22:43:48 JST 2021)
(GPL source distribution)
Java Runtime: OpenJDK Runtime Environment
JVM: OpenJDK 64-Bit Server VM
Default Encoding: MS932
Language: ja
Country: JP
--></g></svg>