<?xml version="1.0" encoding="UTF-8" standalone="no"?><svg xmlns="http://www.w3.org/2000/svg" xmlns:xlink="http://www.w3.org/1999/xlink" contentScriptType="application/ecmascript" contentStyleType="text/css" height="218px" preserveAspectRatio="none" style="width:1032px;height:218px;background:#FFFFFF;" version="1.1" viewBox="0 0 1032 218" width="1032px" zoomAndPan="magnify"><defs><filter height="300%" id="fpyxsj7vunjq2" width="300%" x="-1" y="-1"><feGaussianBlur result="blurOut" stdDeviation="2.0"/><feColorMatrix in="blurOut" result="blurOut2" type="matrix" values="0 0 0 0 0 0 0 0 0 0 0 0 0 0 0 0 0 0 .4 0"/><feOffset dx="4.0" dy="4.0" in="blurOut2" result="blurOut3"/><feBlend in="SourceGraphic" in2="blurOut3" mode="normal"/></filter></defs><g><!--MD5=[300943ec14ee9644d78d1ce9c3121b5a]
entity precommand--><rect fill="#FEFECE" filter="url(#fpyxsj7vunjq2)" height="23.6094" style="stroke:#000000;stroke-width:1.5;" width="132" x="7" y="174"/><text fill="#000000" font-family="sans-serif" font-size="14" lengthAdjust="spacing" textLength="112" x="17" y="191.5332">前段のプログラム</text><!--MD5=[2c21c9db41e00db1b09eb677c7f4fc17]
entity preout--><rect fill="#FEFECE" filter="url(#fpyxsj7vunjq2)" height="23.6094" style="stroke:#000000;stroke-width:1.5;" width="216" x="212" y="174"/><text fill="#000000" font-family="sans-serif" font-size="14" lengthAdjust="spacing" textLength="196" x="222" y="191.5332">標準出力に出力されたテキスト</text><!--MD5=[8fc3522a43f8c7199df5e09e5bb0188e]
entity user--><ellipse cx="556" cy="14" fill="#FEFECE" filter="url(#fpyxsj7vunjq2)" rx="8" ry="8" style="stroke:#A80036;stroke-width:1.5;"/><path d="M556,22 L556,49 M543,30 L569,30 M556,49 L543,64 M556,49 L569,64 " fill="none" filter="url(#fpyxsj7vunjq2)" style="stroke:#A80036;stroke-width:1.5;"/><text fill="#000000" font-family="sans-serif" font-size="14" lengthAdjust="spacing" textLength="42" x="535" y="84.0332">利用者</text><!--MD5=[42f5dcd2bb0ba87fb960d0d08bcd7c79]
entity filter--><rect fill="#FEFECE" filter="url(#fpyxsj7vunjq2)" height="23.6094" style="stroke:#000000;stroke-width:1.5;" width="104" x="504" y="174"/><text fill="#000000" font-family="sans-serif" font-size="14" lengthAdjust="spacing" textLength="84" x="514" y="191.5332">絞り込み画面</text><!--MD5=[4f357fab6ca34eab091f0017c5b8d99b]
entity filteredtext--><rect fill="#FEFECE" filter="url(#fpyxsj7vunjq2)" height="41.2188" style="stroke:#000000;stroke-width:1.5;" width="76" x="671" y="165.5"/><text fill="#000000" font-family="sans-serif" font-size="14" lengthAdjust="spacing" textLength="56" x="681" y="183.0332">選択結果</text><text fill="#000000" font-family="sans-serif" font-size="14" lengthAdjust="spacing" textLength="32" x="681" y="200.6426">(1行)</text><!--MD5=[0d1d703129c2755c1c96e6c87d3a129c]
entity postcommand--><rect fill="#FEFECE" filter="url(#fpyxsj7vunjq2)" height="23.6094" style="stroke:#000000;stroke-width:1.5;" width="132" x="888" y="174"/><text fill="#000000" font-family="sans-serif" font-size="14" lengthAdjust="spacing" textLength="112" x="898" y="191.5332">後段のプログラム</text><!--MD5=[fb069c737a74b06e2176a11a19ba66ff]
link precommand to preout--><path d="M139.19,186 C159.92,186 183.41,186 206.44,186 " fill="none" id="precommand-to-preout" style="stroke:#0000FF;stroke-width:1.0;"/><polygon fill="#0000FF" points="211.65,186,202.65,182,206.65,186,202.65,190,211.65,186" style="stroke:#0000FF;stroke-width:1.0;"/><text fill="#000000" font-family="sans-serif" font-size="13" lengthAdjust="spacing" textLength="36" x="157.5" y="179.4951">stdout</text><!--MD5=[d1cd795eebdee673616111bca4352506]
reverse link preout to filter--><path d="M433.58,186 C458.18,186 483.05,186 503.88,186 " fill="none" id="preout-backto-filter" style="stroke:#FF0000;stroke-width:1.0;"/><polygon fill="#FF0000" points="428.33,186,437.33,190,433.33,186,437.33,182,428.33,186" style="stroke:#FF0000;stroke-width:1.0;"/><text fill="#000000" font-family="sans-serif" font-size="13" lengthAdjust="spacing" textLength="39" x="446.5" y="179.4951">もらう</text><!--MD5=[2248128af807502d67fa9768726ff8c7]
link user to filter--><path d="M556,87.66 C556,114.69 556,148.75 556,168.58 " fill="none" id="user-to-filter" style="stroke:#A80036;stroke-width:1.0;stroke-dasharray:7.0,7.0;"/><polygon fill="#A80036" points="556,173.78,560,164.78,556,168.78,552,164.78,556,173.78" style="stroke:#A80036;stroke-width:1.0;"/><text fill="#000000" font-family="sans-serif" font-size="13" lengthAdjust="spacing" textLength="52" x="557" y="131.9951">選択操作</text><!--MD5=[90dcc4cc577d53a095ce93b3dbc81527]
link filter to filteredtext--><path d="M608.23,186 C626.74,186 647.37,186 665.12,186 " fill="none" id="filter-to-filteredtext" style="stroke:#0000FF;stroke-width:1.0;"/><polygon fill="#0000FF" points="670.53,186,661.53,182,665.53,186,661.53,190,670.53,186" style="stroke:#0000FF;stroke-width:1.0;"/><text fill="#000000" font-family="sans-serif" font-size="13" lengthAdjust="spacing" textLength="26" x="626.5" y="179.4951">出力</text><!--MD5=[0c5eebb4611ac45f64617cb5d468c05f]
reverse link filteredtext to postcommand--><path d="M752.42,186 C789.93,186 844.72,186 887.71,186 " fill="none" id="filteredtext-backto-postcommand" style="stroke:#FF0000;stroke-width:1.0;"/><polygon fill="#FF0000" points="747.01,186,756.01,190,752.01,186,756.01,182,747.01,186" style="stroke:#FF0000;stroke-width:1.0;"/><text fill="#000000" font-family="sans-serif" font-size="13" lengthAdjust="spacing" textLength="104" x="765.5" y="179.4951">実行時引数で参照</text><!--MD5=[bbc795c0d05c356b6679c7009720c5f5]
@startuml{filtercommand.svg}

card "前段のプログラム" as precommand

card "標準出力に出力されたテキスト" as preout

actor "利用者" as user

card "絞り込み画面" as filter

card "選択結果\n(1行)" as filteredtext

card "後段のプログラム" as postcommand

precommand -ri-> preout #blue : stdout

preout <-ri- filter #red : もらう

user .do.> filter : 選択操作

filter -ri-> filteredtext #blue : 出力

filteredtext <-ri- postcommand #red : 実行時引数で参照

@enduml

PlantUML version 1.2021.10(Mon Aug 30 22:43:48 JST 2021)
(GPL source distribution)
Java Runtime: OpenJDK Runtime Environment
JVM: OpenJDK 64-Bit Server VM
Default Encoding: MS932
Language: ja
Country: JP
--></g></svg>